<svg xmlns="http://www.w3.org/2000/svg" xmlns:xlink="http://www.w3.org/1999/xlink" version="1.1" id="Capa_1" x="0px" y="0px" viewBox="0 0 480 480" style="enable-background:new 0 0 480 480;" xml:space="preserve" width="512" height="512" class=""><g><path style="fill:#F8F7F3" d="M168.168,264H208v-52.248L179.984,188.4C167.28,177.816,160,162.264,160,145.744  C160,123.12,178.32,104,200,104c7.104,0,13.912,1.944,20.024,5.576c12.312-7.136,27.624-7.136,39.936,0  C266.08,105.944,272.896,104,280,104c21.68,0,40,19.12,40,41.744c0,16.52-7.28,32.072-19.984,42.656L272,211.752V264h39.832  C342.048,241.344,360,205.672,360,168c0-66.168-53.832-120-120-120s-120,53.832-120,120C120,205.672,137.952,241.344,168.168,264z" data-original="#F8CF26" class="" data-old_color="#F8F5EA"></path><polygon style="fill:#FFD6DC" points="226.84,377.84 170.024,346.272 147.08,374.96 191.584,413.104 " data-original="#3C9BB7" class="active-path" data-old_color="#FFD7DD"></polygon><polygon style="fill:#EBAA39" points="281.128,344 198.872,344 240,366.848 " data-original="#EBAA39" class=""></polygon><g>
	<path style="fill:#FFD6DC" d="M160,288c0,4.416,3.592,8,8,8h144c4.408,0,8-3.584,8-8c0-4.392-3.56-7.96-7.944-7.992l-0.08-0.008   H168C163.592,280,160,283.584,160,288z" data-original="#3C9BB7" class="active-path" data-old_color="#FFD7DD"></path>
	<polygon style="fill:#FFD6DC" points="253.16,377.84 277.656,402.344 288.752,413.44 339.824,375.136 310.608,345.92  " data-original="#3C9BB7" class="active-path" data-old_color="#FFD7DD"></polygon>
</g><g>
	<path style="fill:#F8F7F3" d="M240.688,136.976c0.248-1.384,0.576-2.736,0.968-4.08c0.128-0.44,0.24-0.888,0.384-1.328   c0.568-1.704,1.24-3.376,2.032-4.984c0.136-0.28,0.312-0.544,0.456-0.824c0.704-1.352,1.488-2.656,2.352-3.92   c0.144-0.208,0.248-0.448,0.392-0.656c-4.68-1.56-9.864-1.56-14.544,0c0.144,0.208,0.248,0.448,0.392,0.656   c0.856,1.264,1.648,2.576,2.352,3.92c0.144,0.28,0.32,0.544,0.456,0.824c0.792,1.616,1.464,3.28,2.032,4.984   c0.144,0.44,0.256,0.888,0.384,1.328c0.392,1.336,0.72,2.696,0.968,4.08c0.096,0.512,0.192,1.024,0.264,1.544   c0.248,1.808,0.424,3.632,0.424,5.48c0-1.848,0.176-3.672,0.424-5.48C240.496,138,240.6,137.496,240.688,136.976z" data-original="#F8CF26" class="" data-old_color="#F8F5EA"></path>
	<path style="fill:#F8F7F3" d="M258.336,154.152c0.064,0.128,0.144,0.24,0.208,0.36c0.408,0.808,0.96,1.544,1.464,2.312   c0.504-0.768,1.056-1.504,1.464-2.312c0.064-0.128,0.144-0.24,0.208-0.36c0.672-1.392,1.16-2.856,1.544-4.352   c0.096-0.368,0.176-0.744,0.256-1.12c0.296-1.528,0.52-3.088,0.52-4.68s-0.224-3.152-0.536-4.688   c-0.08-0.376-0.16-0.752-0.256-1.12c-0.384-1.496-0.872-2.96-1.544-4.352c-0.056-0.12-0.144-0.232-0.2-0.36   c-0.408-0.816-0.96-1.552-1.464-2.32c-0.504,0.768-1.056,1.504-1.464,2.32c-0.064,0.12-0.144,0.232-0.2,0.36   c-0.672,1.392-1.16,2.856-1.544,4.352c-0.096,0.368-0.176,0.744-0.256,1.12C256.224,140.848,256,142.408,256,144   s0.224,3.152,0.536,4.688c0.08,0.376,0.16,0.752,0.256,1.12C257.176,151.296,257.664,152.768,258.336,154.152z" data-original="#F8CF26" class="" data-old_color="#F8F5EA"></path>
</g><path style="fill:#FFD6DC" d="M168,328h144c4.408,0,8-3.584,8-8s-3.592-8-8-8H168c-4.408,0-8,3.584-8,8S163.592,328,168,328z" data-original="#3C9BB7" class="active-path" data-old_color="#FFD7DD"></path><g>
	<path style="fill:#F8F7F3" d="M200.688,136.976c0.248-1.376,0.576-2.736,0.968-4.072c0.128-0.448,0.24-0.896,0.384-1.336   c0.568-1.704,1.232-3.368,2.024-4.976c0.152-0.304,0.336-0.584,0.488-0.888c0.688-1.32,1.456-2.592,2.296-3.832   c0.152-0.224,0.264-0.48,0.424-0.704C204.936,120.4,202.496,120,200,120c-12.784,0-24,12.032-24,25.744   c0,11.768,5.184,22.832,14.224,30.36l30.896,25.752c1.824,1.52,2.88,3.768,2.88,6.144v56h32v-56c0-2.376,1.056-4.624,2.88-6.152   l30.896-25.752c9.04-7.528,14.224-18.592,14.224-30.352C304,132.032,292.784,120,280,120c-2.488,0-4.928,0.4-7.272,1.168   c0.16,0.224,0.264,0.48,0.424,0.704c0.84,1.24,1.6,2.512,2.296,3.832c0.16,0.296,0.344,0.584,0.488,0.888   c0.792,1.608,1.456,3.272,2.024,4.976c0.144,0.44,0.256,0.888,0.384,1.336c0.392,1.336,0.72,2.696,0.968,4.072   c0.096,0.512,0.192,1.024,0.264,1.544c0.248,1.808,0.424,3.632,0.424,5.48c0,12.024-5.456,23.328-14.976,31.024   c-1.464,1.176-3.24,1.776-5.024,1.776s-3.56-0.592-5.024-1.776c-9.52-7.696-14.976-19-14.976-31.024   c0,12.024-5.456,23.328-14.976,31.024c-1.464,1.176-3.24,1.776-5.024,1.776s-3.56-0.592-5.024-1.776   c-9.52-7.696-14.976-19-14.976-31.024c0-1.848,0.176-3.672,0.424-5.48C200.496,138,200.6,137.496,200.688,136.976z" data-original="#F8CF26" class="" data-old_color="#F8F5EA"></path>
	<path style="fill:#F8F7F3" d="M218.336,154.152c0.064,0.128,0.144,0.24,0.208,0.36c0.408,0.808,0.96,1.544,1.464,2.312   c0.504-0.768,1.056-1.504,1.464-2.312c0.064-0.128,0.144-0.24,0.208-0.36c0.672-1.392,1.16-2.856,1.544-4.352   c0.096-0.368,0.176-0.744,0.256-1.12c0.296-1.528,0.52-3.088,0.52-4.68s-0.224-3.152-0.536-4.688   c-0.08-0.376-0.16-0.752-0.256-1.12c-0.384-1.496-0.872-2.96-1.544-4.352c-0.056-0.12-0.144-0.232-0.2-0.36   c-0.408-0.816-0.96-1.552-1.464-2.32c-0.504,0.768-1.056,1.504-1.464,2.32c-0.064,0.12-0.144,0.232-0.2,0.36   c-0.672,1.392-1.16,2.856-1.544,4.352c-0.096,0.368-0.176,0.744-0.256,1.12C216.224,140.848,216,142.408,216,144   s0.224,3.152,0.536,4.688c0.08,0.376,0.16,0.752,0.256,1.12C217.176,151.296,217.664,152.768,218.336,154.152z" data-original="#F8CF26" class="" data-old_color="#F8F5EA"></path>
</g><g>
	<path style="fill:#FFD6DC" d="M411.728,388l-57.304-3.816L292.8,430.4c-1.432,1.08-3.12,1.6-4.8,1.6   c-2.064,0-4.112-0.792-5.664-2.344l-9.096-9.096l-7.776,11.672l21.392,35.656c0.752,1.24,1.144,2.656,1.144,4.112v8h176v-36.128   C464,414.496,441.04,389.952,411.728,388z" data-original="#3C9BB7" class="active-path" data-old_color="#FFD7DD"></path>
	<path style="fill:#FFD6DC" d="M193.144,467.88l21.392-35.656l-7.776-11.672l-9.096,9.096c-1.56,1.56-3.616,2.352-5.664,2.352   c-1.848,0-3.704-0.64-5.208-1.928l-53.528-45.88l-64.752,4.048C39.064,390.08,16,414.624,16,444.128V480h176v-8   C192,470.544,192.392,469.128,193.144,467.88z" data-original="#3C9BB7" class="active-path" data-old_color="#FFD7DD"></path>
</g><path style="fill:#F8F7F3" d="M249.144,436.12c-1.592-2.648-1.512-5.984,0.2-8.552l12.36-18.544L240,387.312l-21.704,21.704  l12.36,18.544c1.712,2.568,1.792,5.904,0.2,8.552L208,474.216V480h64v-5.784L249.144,436.12z" data-original="#F8CF26" class="" data-old_color="#F8F5EA"></path><g>
	<path style="fill:#111527" d="M412.792,372.032l-57.264-3.816l-29.136-29.136c5.8-4.384,9.608-11.264,9.608-19.08   c0-6.168-2.408-11.744-6.24-16c3.84-4.256,6.24-9.832,6.24-16c0-6.728-2.8-12.792-7.272-17.152C358.504,245.12,376,207.56,376,168   c0-74.992-61.008-136-136-136S104,93.008,104,168c0,39.56,17.496,77.12,47.272,102.848C146.8,275.208,144,281.272,144,288   c0,6.168,2.408,11.744,6.24,16c-3.84,4.256-6.24,9.832-6.24,16c0,8.288,4.224,15.6,10.624,19.912l-22.656,28.32l-64.456,4.032   C29.656,374.632,0,406.192,0,444.128V480h8h8v-35.872c0-29.504,23.064-54.048,52.504-55.888l64.752-4.048l53.528,45.88   C188.296,431.36,190.152,432,192,432c2.048,0,4.104-0.792,5.656-2.344l9.096-9.096l7.776,11.672l-21.392,35.656   c-0.744,1.24-1.136,2.656-1.136,4.112v8h8h8v-5.784l22.856-38.104c1.592-2.648,1.512-5.984-0.2-8.552l-12.36-18.544L240,387.312   l21.704,21.704l-12.36,18.544c-1.712,2.568-1.792,5.904-0.2,8.552L272,474.216V480h8h8v-8c0-1.456-0.392-2.872-1.144-4.12   l-21.392-35.656l7.776-11.672l9.096,9.096c1.56,1.56,3.608,2.352,5.664,2.352c1.68,0,3.368-0.52,4.8-1.6l61.624-46.216L411.728,388   C441.04,389.952,464,414.496,464,443.872V480h8h8v-36.128C480,406.104,450.48,374.544,412.792,372.032z M339.824,375.136   l-51.072,38.304l-11.096-11.096l-24.496-24.496l57.456-31.92L339.824,375.136z M214.976,175.024   c1.464,1.176,3.248,1.776,5.024,1.776s3.56-0.592,5.024-1.776c9.52-7.696,14.976-19,14.976-31.024c0-1.848-0.176-3.672-0.424-5.48   c-0.072-0.52-0.168-1.024-0.264-1.544c-0.248-1.384-0.576-2.736-0.968-4.08c-0.128-0.44-0.24-0.888-0.384-1.328   c-0.568-1.704-1.24-3.376-2.032-4.984c-0.136-0.28-0.312-0.544-0.456-0.824c-0.704-1.352-1.488-2.656-2.352-3.92   c-0.144-0.208-0.248-0.448-0.392-0.656c4.68-1.56,9.864-1.56,14.544,0c-0.144,0.208-0.248,0.448-0.392,0.656   c-0.856,1.264-1.648,2.576-2.352,3.92c-0.144,0.28-0.32,0.544-0.456,0.824c-0.792,1.616-1.464,3.28-2.032,4.984   c-0.144,0.44-0.256,0.888-0.384,1.328c-0.392,1.336-0.72,2.696-0.968,4.08c-0.096,0.512-0.192,1.024-0.264,1.544   c-0.248,1.808-0.424,3.632-0.424,5.48c0,12.024,5.456,23.328,14.976,31.024c1.464,1.176,3.248,1.776,5.024,1.776   s3.56-0.592,5.024-1.776c9.52-7.696,14.976-19,14.976-31.024c0-1.848-0.176-3.672-0.424-5.48c-0.072-0.52-0.168-1.024-0.264-1.544   c-0.248-1.376-0.576-2.736-0.968-4.072c-0.128-0.448-0.24-0.896-0.384-1.336c-0.568-1.704-1.232-3.368-2.024-4.976   c-0.152-0.304-0.336-0.584-0.488-0.888c-0.688-1.32-1.456-2.592-2.296-3.832c-0.152-0.224-0.264-0.48-0.424-0.704   C275.064,120.4,277.504,120,280,120c12.784,0,24,12.032,24,25.744c0,11.768-5.184,22.832-14.224,30.36l-30.896,25.752   c-1.824,1.52-2.88,3.768-2.88,6.144v56h-32v-56c0-2.376-1.056-4.624-2.88-6.152l-30.896-25.752   c-9.04-7.528-14.224-18.592-14.224-30.352C176,132.032,187.216,120,200,120c2.488,0,4.928,0.4,7.272,1.168   c-0.16,0.224-0.264,0.48-0.424,0.704c-0.84,1.24-1.6,2.512-2.296,3.832c-0.16,0.296-0.344,0.584-0.488,0.888   c-0.792,1.608-1.456,3.272-2.024,4.976c-0.144,0.44-0.256,0.888-0.384,1.336c-0.392,1.336-0.72,2.696-0.968,4.072   c-0.096,0.512-0.192,1.024-0.264,1.544c-0.248,1.808-0.424,3.632-0.424,5.48C200,156.024,205.456,167.328,214.976,175.024z    M216,144c0-1.592,0.224-3.152,0.536-4.688c0.08-0.376,0.16-0.752,0.256-1.12c0.384-1.496,0.872-2.96,1.544-4.352   c0.056-0.12,0.144-0.232,0.2-0.36c0.408-0.816,0.96-1.552,1.464-2.32c0.504,0.768,1.056,1.504,1.464,2.32   c0.064,0.12,0.144,0.232,0.2,0.36c0.672,1.392,1.16,2.856,1.544,4.352c0.096,0.368,0.176,0.744,0.256,1.12   c0.312,1.536,0.536,3.096,0.536,4.688s-0.224,3.152-0.536,4.688c-0.08,0.376-0.16,0.752-0.256,1.12   c-0.384,1.496-0.872,2.96-1.544,4.352c-0.064,0.128-0.144,0.24-0.208,0.36c-0.408,0.808-0.96,1.544-1.464,2.312   c-0.504-0.768-1.056-1.504-1.464-2.312c-0.064-0.128-0.144-0.24-0.208-0.36c-0.672-1.392-1.16-2.856-1.544-4.352   c-0.096-0.368-0.176-0.744-0.256-1.12C216.224,147.152,216,145.592,216,144z M256,144c0-1.592,0.224-3.152,0.536-4.688   c0.08-0.376,0.16-0.752,0.256-1.12c0.384-1.496,0.872-2.96,1.544-4.352c0.056-0.12,0.144-0.232,0.2-0.36   c0.408-0.816,0.96-1.552,1.464-2.32c0.504,0.768,1.056,1.504,1.464,2.32c0.064,0.12,0.144,0.232,0.2,0.36   c0.672,1.392,1.16,2.856,1.544,4.352c0.096,0.368,0.176,0.744,0.256,1.12c0.312,1.536,0.536,3.096,0.536,4.688   s-0.224,3.152-0.536,4.688c-0.08,0.376-0.16,0.752-0.256,1.12c-0.384,1.496-0.872,2.96-1.544,4.352   c-0.064,0.128-0.144,0.24-0.208,0.36c-0.408,0.808-0.96,1.544-1.464,2.312c-0.504-0.768-1.056-1.504-1.464-2.312   c-0.064-0.128-0.144-0.24-0.208-0.36c-0.672-1.392-1.16-2.856-1.544-4.352c-0.096-0.368-0.176-0.744-0.256-1.12   C256.224,147.152,256,145.592,256,144z M311.976,280l0.08,0.008c4.384,0.032,7.944,3.6,7.944,7.992c0,4.416-3.592,8-8,8H168   c-4.408,0-8-3.584-8-8s3.592-8,8-8H311.976z M168,312h144c4.408,0,8,3.584,8,8s-3.592,8-8,8H168c-4.408,0-8-3.584-8-8   S163.592,312,168,312z M281.128,344L240,366.848L198.872,344H281.128z M120,168c0-66.168,53.832-120,120-120s120,53.832,120,120   c0,37.672-17.952,73.344-48.168,96H272v-52.248l28.016-23.352C312.72,177.816,320,162.264,320,145.744   C320,123.12,301.68,104,280,104c-7.104,0-13.912,1.944-20.024,5.576c-12.312-7.136-27.624-7.136-39.936,0   C213.92,105.944,207.104,104,200,104c-21.68,0-40,19.12-40,41.744c0,16.52,7.28,32.072,19.984,42.656L208,211.752V264h-39.832   C137.952,241.344,120,205.672,120,168z M170.024,346.272l56.824,31.568l-35.264,35.256l-44.504-38.144L170.024,346.272z" data-original="#111527" class=""></path>
	
		<rect x="364.687" y="56.001" transform="matrix(-0.7071 0.7071 -0.7071 -0.7071 687.1262 -156.6153)" style="fill:#111527" width="22.624" height="16" data-original="#111527" class=""></rect>
	
		<rect x="368.028" y="260.67" transform="matrix(-0.7071 0.7071 -0.7071 -0.7071 834.2399 198.4097)" style="fill:#111527" width="16" height="22.624" data-original="#111527" class=""></rect>
	<rect x="400" y="160" style="fill:#111527" width="16" height="16" data-original="#111527" class=""></rect>
	
		<rect x="95.996" y="52.692" transform="matrix(-0.7071 0.7071 -0.7071 -0.7071 222.7899 35.7254)" style="fill:#111527" width="16" height="22.624" data-original="#111527" class=""></rect>
	
		<rect x="92.705" y="263.993" transform="matrix(-0.7071 0.7071 -0.7071 -0.7071 369.8957 390.7697)" style="fill:#111527" width="22.624" height="16" data-original="#111527" class=""></rect>
	<rect x="64" y="160" style="fill:#111527" width="16" height="16" data-original="#111527" class=""></rect>
	<rect x="232" style="fill:#111527" width="16" height="16" data-original="#111527" class=""></rect>
</g></g> </svg>