<svg xmlns="http://www.w3.org/2000/svg" xmlns:xlink="http://www.w3.org/1999/xlink" version="1.1" id="Capa_1" x="0px" y="0px" viewBox="0 0 51 51" style="enable-background:new 0 0 51 51;" xml:space="preserve" width="512" height="512" class=""><g><polygon style="fill:#F8EDED" points="25.5,29 9.7,19.973 0.044,25.456 25.5,40 50.956,25.456 41.3,19.973 " data-original="#694F87" class="active-path" data-old_color="#F8ECEC"></polygon><g>
	<polygon style="fill:#969292" points="25.5,40 9.7,30.973 0.044,36.456 25.5,51 50.956,36.456 41.3,30.973  " data-original="#556080" class="" data-old_color="#556080"></polygon>
</g><g>
	<circle style="fill:#E27E74" cx="40.044" cy="21" r="1" data-original="#BF4D90" class="" data-old_color="#BF4D90"></circle>
	<circle style="fill:#E27E74" cx="43.044" cy="24" r="1" data-original="#BF4D90" class="" data-old_color="#BF4D90"></circle>
	<circle style="fill:#E27E74" cx="10.044" cy="21" r="1" data-original="#BF4D90" class="" data-old_color="#BF4D90"></circle>
	<circle style="fill:#E27E74" cx="37.044" cy="24" r="1" data-original="#BF4D90" class="" data-old_color="#BF4D90"></circle>
	<circle style="fill:#E27E74" cx="7.044" cy="24" r="1" data-original="#BF4D90" class="" data-old_color="#BF4D90"></circle>
	<circle style="fill:#E27E74" cx="13.044" cy="24" r="1" data-original="#BF4D90" class="" data-old_color="#BF4D90"></circle>
	<circle style="fill:#E27E74" cx="10.044" cy="27" r="1" data-original="#BF4D90" class="" data-old_color="#BF4D90"></circle>
	<circle style="fill:#E27E74" cx="16.044" cy="27" r="1" data-original="#BF4D90" class="" data-old_color="#BF4D90"></circle>
	<circle style="fill:#E27E74" cx="16.044" cy="33" r="1" data-original="#BF4D90" class="" data-old_color="#BF4D90"></circle>
	<circle style="fill:#E27E74" cx="13.044" cy="30" r="1" data-original="#BF4D90" class="" data-old_color="#BF4D90"></circle>
	<circle style="fill:#E27E74" cx="19.044" cy="30" r="1" data-original="#BF4D90" class="" data-old_color="#BF4D90"></circle>
	<circle style="fill:#E27E74" cx="22.044" cy="33" r="1" data-original="#BF4D90" class="" data-old_color="#BF4D90"></circle>
	<circle style="fill:#E27E74" cx="28.044" cy="33" r="1" data-original="#BF4D90" class="" data-old_color="#BF4D90"></circle>
	<circle style="fill:#E27E74" cx="25.044" cy="30" r="1" data-original="#BF4D90" class="" data-old_color="#BF4D90"></circle>
	<circle style="fill:#E27E74" cx="31.044" cy="30" r="1" data-original="#BF4D90" class="" data-old_color="#BF4D90"></circle>
	<circle style="fill:#E27E74" cx="25.044" cy="36" r="1" data-original="#BF4D90" class="" data-old_color="#BF4D90"></circle>
	<circle style="fill:#E27E74" cx="34.044" cy="27" r="1" data-original="#BF4D90" class="" data-old_color="#BF4D90"></circle>
	<circle style="fill:#E27E74" cx="40.044" cy="27" r="1" data-original="#BF4D90" class="" data-old_color="#BF4D90"></circle>
	<circle style="fill:#E27E74" cx="34.044" cy="33" r="1" data-original="#BF4D90" class="" data-old_color="#BF4D90"></circle>
	<circle style="fill:#E27E74" cx="37.044" cy="30" r="1" data-original="#BF4D90" class="" data-old_color="#BF4D90"></circle>
	<circle style="fill:#E27E74" cx="46.044" cy="27" r="1" data-original="#BF4D90" class="" data-old_color="#BF4D90"></circle>
</g><polygon style="fill:#E27E74" points="50.956,14.456 25.5,29 0.044,14.456 25.5,0 " data-original="#BF4D90" class="" data-old_color="#BF4D90"></polygon></g> </svg>